<?xml version="1.0" encoding="utf-8"?>
<!-- Svg Vector Icons : http://www.onlinewebfonts.com/icon -->
<!DOCTYPE svg PUBLIC "-//W3C//DTD SVG 1.1//EN" "http://www.w3.org/Graphics/SVG/1.1/DTD/svg11.dtd">
<svg version="1.1" xmlns="http://www.w3.org/2000/svg" xmlns:xlink="http://www.w3.org/1999/xlink" x="0px" y="0px" viewBox="0 0 256 256" enable-background="new 0 0 256 256" xml:space="preserve">
<metadata> Svg Vector Icons : http://www.onlinewebfonts.com/icon </metadata>
<g><g><path fill="#000000" d="M207.3,99.6h-11.6V69.3c0-0.2,0-0.4,0-0.6c-2.1-16.1-9.9-30.9-22.1-41.8C161.2,16,145.4,10,128.9,10c-18,0-34.9,7-47.6,19.7C68.6,42.4,61.6,59.3,61.6,77.3v22.3H48.7c-8.9,0-16.1,7.2-16.1,16.1v114.1c0,8.9,7.2,16.1,16.1,16.1h98.4c0.1,0,0.3,0,0.4,0h59.3c0.1,0,0.3,0,0.4,0c8.9,0,16.1-7.2,16.1-16.1V115.7C223.4,106.8,216.1,99.6,207.3,99.6L207.3,99.6z M186.2,99.7C186.3,99.7,186.3,99.7,186.2,99.7L71,99.6V77.3c0-15.5,6-30,17-40.9c10.9-10.9,25.5-17,40.9-17c14.2,0,27.8,5.2,38.4,14.5c10.4,9.2,17.1,21.9,19,35.6V104c0,0.4,0,0.8,0.2,1.3l-5.9,1.6c0.6,2,8.5,2.1,10.5,2.1h16.2c3.7,0,6.7,3,6.7,6.7v114.1l0,0c0,3.5-2.7,6.4-6.2,6.6h0h-62c-0.1,0-0.3,0-0.4,0H48.7c-3.7,0-6.7-3-6.7-6.6V115.7c0-3.7,3-6.7,6.7-6.7l17.6,0c0.2,0,0.5,0,0.7,0c0.3,0,0.5,0.1,0.8,0.1h123.3c0.1,0,5.9,0-3.5,0"/><path fill="#000000" d="M144.3,173.5c0,0,0.1-0.1,0.1-0.2c2.9-3.7,4.4-8.1,4.4-12.8c0-11.5-9.4-20.9-20.9-20.9l0,0c-11.5,0-20.9,9.4-20.9,20.9c0,4.6,1.4,8.9,4.2,12.6c0.1,0.1,0.1,0.2,0.2,0.2c5.2,6,5.5,10.3,5.6,10.7v12c0,6,4.9,10.9,10.9,10.9c6,0,10.9-4.9,10.9-10.9v-12.1c0-0.1,0-0.3,0-0.4c0,0,0,0,0,0 M207.3,109.1c3.7,0,6.6,3,6.6,6.6v114.1l0,0c0,3.5-2.7,6.4-6.2,6.6h0h-62c-0.1,0-0.3,0-0.4,0H48.7c-3.7,0-6.7-3-6.7-6.7V115.7c0-3.7,3-6.6,6.7-6.6l17.6,0c0.2,0,0.5,0,0.7,0c0.2,0,0.5,0.1,0.8,0.1h123.3c0.1,0,5.9,0-3.5,0 M71,99.6V77.3"/></g></g>
</svg>