<?xml version="1.0" encoding="utf-8"?>
<!-- Svg Vector Icons : http://www.onlinewebfonts.com/icon -->
<!DOCTYPE svg PUBLIC "-//W3C//DTD SVG 1.1//EN" "http://www.w3.org/Graphics/SVG/1.1/DTD/svg11.dtd">
<svg version="1.1" xmlns="http://www.w3.org/2000/svg" xmlns:xlink="http://www.w3.org/1999/xlink" x="0px" y="0px" viewBox="0 0 256 256" enable-background="new 0 0 256 256" xml:space="preserve">
<metadata> Svg Vector Icons : http://www.onlinewebfonts.com/icon </metadata>
<g><g><path fill="#000000" d="M237.6,123.6c1,11.2,1,21.7-1.1,32.1c-3.4,17.4-11.4,32.3-25.9,43.2c-10.8,8.1-23.2,12.7-36.6,13.9c-11.6,1-23.2,1-34.8,1.1c-19.1,0.1-38.2,0.1-57.3,0c-2.5,0-3.4,0.6-3.3,3.2c0.2,8.5,0.1,17,0.1,25.6v3.4C55.5,226.8,33,208.2,10,189.1c22.8-18.9,45.4-37.6,68.4-56.8c0.1,1.4,0.2,2.3,0.2,3.1c0,8.7,0.1,17.4,0,26.1c0,2.2,0.6,2.9,2.9,2.9c25.4-0.1,50.8,0.2,76.1-0.4c18.6-0.4,36.8-3.6,53.6-12.3c9.2-4.8,17.1-11.2,22.5-20.2C235,129.2,236.1,126.7,237.6,123.6z M177.1,123.1c0-5.4,0-10.8,0-16.3c0-4.3,0-8.5,0-12.8c0-1.9-0.7-2.4-2.5-2.4c-26.1,0.1-52.1-0.1-78.1,0.5c-17.9,0.4-35.4,3.7-51.6,12c-8.9,4.5-16.5,10.5-22,19c-1.7,2.6-2.9,5.4-4.6,8.6c-0.2-2.2-0.4-4.1-0.5-6C17,109.5,19,93.9,26.6,79.4c10.2-19.7,27-30.5,48.5-35.1c8.7-1.8,17.5-2.1,26.3-2.1c24.3,0,48.5,0,72.8,0.1c2.4,0,2.8-0.8,2.7-2.9c-0.1-8.7,0-17.4,0-26.1V10c23.3,19.3,46,38,69,57.1c-22.9,19-45.6,37.7-68.2,56.4C177.5,123.4,177.3,123.2,177.1,123.1z"/></g></g>
</svg>